<svg width="15" height="15" viewBox="0 0 15 15" fill="none" xmlns="http://www.w3.org/2000/svg">
<path fill-rule="evenodd" clip-rule="evenodd" d="M10.9084 4.37497C11.7908 3.45976 11.7776 2.20439 11 1.42679C10.0475 0.474237 8.38043 0.668761 7.50104 2.2551C6.62164 0.668762 4.9546 0.474237 4.00205 1.42679C3.22445 2.20439 3.21126 3.45976 4.0937 4.37497H3.75C2.36929 4.37497 1.25 5.49426 1.25 6.87497L1.25181 7.29478C1.26503 7.82874 1.35064 8.13567 1.50044 8.41576C1.66385 8.72132 1.90365 8.96112 2.20921 9.12453C2.30092 9.17358 2.39551 9.21575 2.5 9.25074V10.5451C2.5 11.6595 2.61603 12.0636 2.83392 12.471C3.0518 12.8785 3.37154 13.1982 3.77894 13.4161C4.18635 13.634 4.59046 13.75 5.70486 13.75H9.29514C10.4095 13.75 10.8137 13.634 11.2211 13.4161C11.6285 13.1982 11.9482 12.8785 12.1661 12.471C12.384 12.0636 12.5 11.6595 12.5 10.5451V9.25074C12.6045 9.21575 12.6991 9.17358 12.7908 9.12453C13.0963 8.96112 13.3362 8.72132 13.4996 8.41576C13.663 8.11021 13.75 7.77272 13.75 7.14337V6.87497C13.75 5.49426 12.6307 4.37497 11.25 4.37497H10.9084ZM6.92564 5.49995H3.74998C2.99059 5.49995 2.37498 6.11556 2.37498 6.87495L2.37607 7.26152C2.38264 7.59522 2.41915 7.74811 2.49246 7.8852C2.55102 7.9947 2.63023 8.07391 2.73974 8.13247C2.89205 8.21393 3.06388 8.24995 3.48158 8.24995H6.93751V5.50076C6.93355 5.50049 6.9296 5.50022 6.92564 5.49995ZM8.06251 8.24995V5.5009C8.06716 5.50059 8.0718 5.50027 8.07643 5.49995H11.25C12.0094 5.49995 12.625 6.11556 12.625 6.87495L12.6239 7.26152C12.6173 7.59522 12.5808 7.74811 12.5075 7.8852C12.4489 7.9947 12.3697 8.07391 12.2602 8.13247C12.1079 8.21393 11.9361 8.24995 11.5184 8.24995H8.06251ZM11.375 9.37497H8.06251V12.6243H9.44719L9.71432 12.6192C10.2433 12.6019 10.4648 12.5447 10.6905 12.424C10.9018 12.311 11.061 12.1518 11.174 11.9405C11.3133 11.6801 11.3681 11.4253 11.3744 10.6972L11.375 9.37497ZM6.93751 9.37497H3.62498L3.62561 10.6972L3.6308 10.9643C3.64802 11.4933 3.70525 11.7148 3.82594 11.9405C3.93897 12.1518 4.09812 12.311 4.30947 12.424C4.56986 12.5633 4.8247 12.618 5.55277 12.6243H6.93751V9.37497ZM6.78051 4.35913L6.93573 4.37331L6.93742 4.34805C6.7674 2.20555 5.54339 1.47645 4.79754 2.2223C4.12928 2.89056 4.74947 4.14501 6.78051 4.35913ZM8.22157 4.35913L8.06635 4.37331L8.06465 4.34805C8.23468 2.20555 9.45869 1.47645 10.2045 2.2223C10.8728 2.89056 10.2526 4.14501 8.22157 4.35913Z" fill="white"/>
</svg>
