<svg width="17" height="17" viewBox="0 0 17 17" fill="none" xmlns="http://www.w3.org/2000/svg">
<circle cx="8.5" cy="8.5" r="8.5" fill="#328F33"/>
<path fill-rule="evenodd" clip-rule="evenodd" d="M11.9084 5.37497C12.7908 4.45976 12.7776 3.20439 12 2.42679C11.0475 1.47424 9.38043 1.66876 8.50104 3.2551C7.62164 1.66876 5.9546 1.47424 5.00205 2.42679C4.22445 3.20439 4.21126 4.45976 5.0937 5.37497H4.75C3.36929 5.37497 2.25 6.49426 2.25 7.87497L2.25181 8.29478C2.26503 8.82874 2.35064 9.13567 2.50044 9.41576C2.66385 9.72132 2.90365 9.96112 3.20921 10.1245C3.30092 10.1736 3.39551 10.2157 3.5 10.2507V11.5451C3.5 12.6595 3.61603 13.0636 3.83392 13.471C4.0518 13.8785 4.37154 14.1982 4.77894 14.4161C5.18635 14.634 5.59046 14.75 6.70486 14.75H10.2951C11.4095 14.75 11.8137 14.634 12.2211 14.4161C12.6285 14.1982 12.9482 13.8785 13.1661 13.471C13.384 13.0636 13.5 12.6595 13.5 11.5451V10.2507C13.6045 10.2157 13.6991 10.1736 13.7908 10.1245C14.0963 9.96112 14.3362 9.72132 14.4996 9.41576C14.663 9.11021 14.75 8.77272 14.75 8.14337V7.87497C14.75 6.49426 13.6307 5.37497 12.25 5.37497H11.9084ZM7.92564 6.49995H4.74998C3.99059 6.49995 3.37498 7.11556 3.37498 7.87495L3.37607 8.26152C3.38264 8.59522 3.41915 8.74811 3.49246 8.8852C3.55102 8.9947 3.63023 9.07391 3.73974 9.13247C3.89205 9.21393 4.06388 9.24995 4.48158 9.24995H7.93751V6.50076C7.93355 6.50049 7.9296 6.50022 7.92564 6.49995ZM9.06251 9.24995V6.5009C9.06716 6.50059 9.0718 6.50027 9.07643 6.49995H12.25C13.0094 6.49995 13.625 7.11556 13.625 7.87495L13.6239 8.26152C13.6173 8.59522 13.5808 8.74811 13.5075 8.8852C13.4489 8.9947 13.3697 9.07391 13.2602 9.13247C13.1079 9.21393 12.9361 9.24995 12.5184 9.24995H9.06251ZM12.375 10.375H9.06251V13.6243H10.4472L10.7143 13.6192C11.2433 13.6019 11.4648 13.5447 11.6905 13.424C11.9018 13.311 12.061 13.1518 12.174 12.9405C12.3133 12.6801 12.3681 12.4253 12.3744 11.6972L12.375 10.375ZM7.93751 10.375H4.62498L4.62561 11.6972L4.6308 11.9643C4.64802 12.4933 4.70525 12.7148 4.82594 12.9405C4.93897 13.1518 5.09812 13.311 5.30947 13.424C5.56986 13.5633 5.8247 13.618 6.55277 13.6243H7.93751V10.375ZM7.78051 5.35913L7.93573 5.37331L7.93742 5.34805C7.7674 3.20555 6.54339 2.47645 5.79754 3.2223C5.12928 3.89056 5.74947 5.14501 7.78051 5.35913ZM9.22157 5.35913L9.06635 5.37331L9.06465 5.34805C9.23468 3.20555 10.4587 2.47645 11.2045 3.2223C11.8728 3.89056 11.2526 5.14501 9.22157 5.35913Z" fill="white"/>
</svg>
