<svg width="20" height="20" viewBox="0 0 20 20" fill="none" xmlns="http://www.w3.org/2000/svg">
<circle cx="10" cy="10" r="10" fill="url(#paint0_linear)"/>
<path d="M12.1992 6.5C13.7461 6.5 15 7.70487 15 9.19116C15 10.6921 14.3741 11.4447 11.7195 13.4286L10.5116 14.3313C10.2107 14.5562 9.78931 14.5562 9.48838 14.3313L8.2805 13.4286C5.62586 11.4447 5 10.6921 5 9.19116C5 7.70487 6.25394 6.5 7.80075 6.5C8.62949 6.5 9.35 6.9 10 7.65C10.65 6.9 11.3705 6.5 12.1992 6.5Z" fill="white"/>
<mask id="mask0" mask-type="alpha" maskUnits="userSpaceOnUse" x="5" y="6" width="10" height="9">
<path d="M12.1992 6.5C13.7461 6.5 15 7.70487 15 9.19116C15 10.6921 14.3741 11.4447 11.7195 13.4286L10.5116 14.3313C10.2107 14.5562 9.78931 14.5562 9.48838 14.3313L8.2805 13.4286C5.62586 11.4447 5 10.6921 5 9.19116C5 7.70487 6.25394 6.5 7.80075 6.5C8.62949 6.5 9.35 6.9 10 7.65C10.65 6.9 11.3705 6.5 12.1992 6.5Z" fill="white"/>
</mask>
<g mask="url(#mask0)">
</g>
<defs>
<linearGradient id="paint0_linear" x1="-10" y1="10" x2="10" y2="30" gradientUnits="userSpaceOnUse">
<stop stop-color="#FF5263"/>
<stop offset="1" stop-color="#FF3347"/>
</linearGradient>
</defs>
</svg>
