<svg width="20" height="20" viewBox="0 0 20 20" fill="none" xmlns="http://www.w3.org/2000/svg">
<circle cx="10" cy="10" r="10" fill="url(#paint0_linear)"/>
<path fill-rule="evenodd" clip-rule="evenodd" d="M15.8333 16C15.8333 16 17 16 17 14.8333C17 13.6667 15.8333 10.1667 10 10.1667C4.16667 10.1667 3 13.6667 3 14.8333C3 16 4.16667 16 4.16667 16H15.8333ZM4.1725 14.8987V14.8963V14.8987ZM4.19233 14.8333H15.8077C15.8131 14.8327 15.8186 14.8319 15.824 14.831L15.8333 14.8287C15.8322 14.5417 15.6537 13.6783 14.8627 12.8873C14.102 12.1267 12.6705 11.3333 10 11.3333C7.32833 11.3333 5.898 12.1267 5.13733 12.8873C4.34633 13.6783 4.169 14.5417 4.16667 14.8287C4.17521 14.8303 4.18376 14.8319 4.19233 14.8333ZM15.8287 14.8987V14.8963V14.8987ZM10 7.83333C10.6188 7.83333 11.2123 7.5875 11.6499 7.14992C12.0875 6.71233 12.3333 6.11884 12.3333 5.5C12.3333 4.88116 12.0875 4.28767 11.6499 3.85008C11.2123 3.4125 10.6188 3.16667 10 3.16667C9.38116 3.16667 8.78767 3.4125 8.35008 3.85008C7.9125 4.28767 7.66667 4.88116 7.66667 5.5C7.66667 6.11884 7.9125 6.71233 8.35008 7.14992C8.78767 7.5875 9.38116 7.83333 10 7.83333ZM13.5 5.5C13.5 6.42826 13.1313 7.3185 12.4749 7.97487C11.8185 8.63125 10.9283 9 10 9C9.07174 9 8.1815 8.63125 7.52513 7.97487C6.86875 7.3185 6.5 6.42826 6.5 5.5C6.5 4.57174 6.86875 3.6815 7.52513 3.02513C8.1815 2.36875 9.07174 2 10 2C10.9283 2 11.8185 2.36875 12.4749 3.02513C13.1313 3.6815 13.5 4.57174 13.5 5.5Z" fill="white"/>
<defs>
<linearGradient id="paint0_linear" x1="-10" y1="10" x2="10" y2="30" gradientUnits="userSpaceOnUse">
<stop stop-color="#FF5263"/>
<stop offset="1" stop-color="#FF3347"/>
</linearGradient>
</defs>
</svg>
