<svg width="20" height="20" viewBox="0 0 20 20" fill="none" xmlns="http://www.w3.org/2000/svg">
<circle cx="10" cy="10" r="10" fill="#FFB73D"/>
<path fill-rule="evenodd" clip-rule="evenodd" d="M5 5.54395C5 5.23481 5.25474 4.98588 5.56354 5.00062C5.72429 5.0083 5.88792 5.0181 6.007 5.02998C10.7073 5.49897 14.451 9.21582 14.9608 13.9035C14.9761 14.0448 14.9886 14.2442 14.998 14.4342C15.0134 14.7434 14.7644 14.9989 14.4548 14.9989H13.5497C13.2524 14.9989 13.0096 14.7625 12.9927 14.4657C12.9839 14.3106 12.9726 14.1523 12.9589 14.0377C12.5139 10.3143 9.51601 7.3751 5.76541 7.01985C5.70171 7.01382 5.62131 7.00853 5.5367 7.004C5.23846 6.98802 5 6.74537 5 6.4467V5.54395ZM5 8.90869C5 8.59011 5.26992 8.33802 5.58768 8.36098C5.78669 8.37536 5.96593 8.3889 5.99254 8.39287C8.82071 8.8141 11.0701 11.0079 11.5741 13.8079C11.6033 13.97 11.6266 14.2057 11.6439 14.4247C11.6685 14.7373 11.4181 14.9989 11.1046 14.9989H10.2998C10.0046 14.9989 9.7644 14.7656 9.73822 14.4716C9.73056 14.3856 9.72161 14.3039 9.71138 14.24C9.38749 12.2139 7.78786 10.6136 5.762 10.2885C5.7574 10.2878 5.64465 10.2787 5.50724 10.2679C5.22099 10.2452 5 10.0064 5 9.71928V8.90869ZM7.75544 14.9989C8.07236 14.9989 8.32774 14.731 8.28339 14.4172C8.27222 14.3381 8.25943 14.264 8.24509 14.2052C7.94039 12.9554 6.93233 11.9811 5.66396 11.7253C5.63776 11.72 5.60806 11.715 5.57611 11.7103C5.26475 11.6649 5 11.9231 5 12.2378V14.4489C5 14.7527 5.24624 14.9989 5.55 14.9989H7.75544Z" fill="white"/>
</svg>
