<svg width="28" height="28" viewBox="0 0 28 28" fill="none" xmlns="http://www.w3.org/2000/svg">
<path fill-rule="evenodd" clip-rule="evenodd" d="M17.707 8.8388C17.707 7.86741 18.4547 7.07195 19.402 7.00462L19.5324 7C19.9406 7 20.3371 7.13787 20.6584 7.39156L27.3006 12.6361C28.094 13.2625 28.2331 14.4183 27.6112 15.2176C27.5206 15.3341 27.4163 15.4392 27.3006 15.5305L20.6584 20.775C19.8649 21.4015 18.7176 21.2614 18.0957 20.4621C17.8439 20.1384 17.707 19.739 17.707 19.328L17.7062 17.1947L17.5249 17.2168C15.5734 17.4793 13.8094 18.4816 12.5705 20.0095L12.4119 20.2117C11.9917 20.766 11.115 20.5167 11.0445 19.8229C11.0149 19.5319 11 19.2385 11 18.944C11 14.8915 13.841 11.4567 17.6888 10.6536L17.7062 10.6494L17.707 8.8388ZM19.7157 8.60319C19.6634 8.56189 19.5988 8.53945 19.5324 8.53945C19.3683 8.53945 19.2352 8.67347 19.2352 8.839L19.2346 11.3039C19.2345 11.6929 18.9463 12.0207 18.563 12.0678C15.5631 12.4363 13.1926 14.7369 12.6469 17.6579L12.6267 17.7737L12.7747 17.6508C14.2365 16.4717 16.0386 15.7516 17.9693 15.6274L18.2598 15.6133L18.4577 15.61C18.8845 15.603 19.2343 15.9494 19.2344 16.3794L19.2352 19.3278C19.2352 19.3947 19.2575 19.4597 19.2985 19.5124C19.3998 19.6425 19.5865 19.6654 19.7157 19.5634L26.3579 14.3189C26.3768 14.304 26.3937 14.2869 26.4085 14.2679C26.5097 14.1378 26.4871 13.9497 26.3579 13.8477L19.7157 8.60319Z" fill="#898D91"/>
</svg>
